<?xml version="1.0" encoding="UTF-8"?>
<svg width="119px" height="119px" viewBox="0 0 119 119" version="1.1" xmlns="http://www.w3.org/2000/svg" xmlns:xlink="http://www.w3.org/1999/xlink">
    <!-- Generator: Sketch 52.3 (67297) - http://www.bohemiancoding.com/sketch -->
    <title>logo</title>
    <desc>Created with Sketch.</desc>
    <g id="Page-1" stroke="none" stroke-width="1" fill="none" fill-rule="evenodd">
        <g id="logo">
            <path d="M74.817435,62.9615427 C74.964075,63.4980994 75.208005,63.936371 75.532305,64.2954126 C75.839685,65.8499226 77.224305,66.6281805 79.683345,66.6281805 C97.4129808,66.6281805 109.10573,66.6281805 114.761593,66.6281805 C116.127033,66.6281805 117.026018,58.7132174 115.582636,58.7132174 C110.56295,58.7132174 100.312019,58.7132174 84.829845,58.7132174 L74.801925,21.4912276 C74.343675,19.8304092 73.115565,19 71.123235,19 C70.725615,19 70.295565,19.033096 69.838725,19.0992881 L67.376865,19.4543181 C65.473365,19.7281124 64.374975,20.3910357 64.047855,21.4240327 C63.904035,21.6908067 63.782775,21.9776388 63.699585,22.308599 L50.435715,75.5029282 L46.604745,61.3919891 C46.150725,59.7492231 44.932485,58.9318517 42.981045,58.9137993 C42.463575,58.7824181 41.862915,58.717229 41.176245,58.717229 C22.4125057,58.8322062 9.92760646,58.8958458 3.72154729,58.9081477 C1.8207844,58.9119154 2.36265768,66.6311893 4.64295419,66.6311893 C10.0656779,66.6311893 20.8057114,66.6311893 36.863055,66.6311893 L44.854935,96.0705999 C44.938125,96.3664582 45.056565,96.6282177 45.187695,96.8679131 C45.152445,98.368266 46.322745,99.2969603 48.726795,99.6038507 L51.199935,99.9197672 C51.618705,99.9739243 52.010685,100 52.375875,100 C54.435885,100 55.673865,99.1585588 56.074305,97.5188015 L69.556725,43.4429146 L74.817435,62.9615427 Z" id="Path" fill="#9B9B9B" transform="translate(59.442552, 59.500000) scale(-1, 1) translate(-59.442552, -59.500000) "></path>
            <circle id="Oval" stroke="#979797" stroke-width="6" cx="59.5" cy="59.5" r="56.5"></circle>
        </g>
    </g>
</svg>