<?xml version="1.0" encoding="UTF-8"?>
<svg width="20px" height="16px" viewBox="0 0 20 16" version="1.1" xmlns="http://www.w3.org/2000/svg" xmlns:xlink="http://www.w3.org/1999/xlink">
    <!-- Generator: Sketch 52.3 (67297) - http://www.bohemiancoding.com/sketch -->
    <title>menu</title>
    <desc>Created with Sketch.</desc>
    <g id="Page-1" stroke="none" stroke-width="1" fill="none" fill-rule="evenodd">
        <g id="menu" transform="translate(-6.000000, -8.000000)">
            <rect id="Rectangle" x="0" y="0" width="32" height="32"></rect>
            <path d="M7.14285714,8 L24.5714286,8 C25.2026111,8 25.7142857,8.51167457 25.7142857,9.14285714 C25.7142857,9.77403971 25.2026111,10.2857143 24.5714286,10.2857143 L7.14285714,10.2857143 C6.51167457,10.2857143 6,9.77403971 6,9.14285714 C6,8.51167457 6.51167457,8 7.14285714,8 Z M13.7711429,14.8571429 L24.5714286,14.8571429 C25.2026111,14.8571429 25.7142857,15.3688174 25.7142857,16 C25.7142857,16.6311826 25.2026111,17.1428571 24.5714286,17.1428571 L13.7711429,17.1428571 C13.1399603,17.1428571 12.6282857,16.6311826 12.6282857,16 C12.6282857,15.3688174 13.1399603,14.8571429 13.7711429,14.8571429 Z M7.14285714,21.7142857 L24.5714286,21.7142857 C25.2026111,21.7142857 25.7142857,22.2259603 25.7142857,22.8571429 C25.7142857,23.4883254 25.2026111,24 24.5714286,24 L7.14285714,24 C6.51167457,24 6,23.4883254 6,22.8571429 C6,22.2259603 6.51167457,21.7142857 7.14285714,21.7142857 Z" id="Combined-Shape" fill="#9B9B9B" fill-rule="nonzero"></path>
        </g>
    </g>
</svg>