<?xml version="1.0" encoding="UTF-8"?>
<svg width="20px" height="16px" viewBox="0 0 20 16" version="1.1" xmlns="http://www.w3.org/2000/svg" xmlns:xlink="http://www.w3.org/1999/xlink">
    <!-- Generator: Sketch 52.3 (67297) - http://www.bohemiancoding.com/sketch -->
    <title>muted</title>
    <desc>Created with Sketch.</desc>
    <g id="Page-1" stroke="none" stroke-width="1" fill="none" fill-rule="evenodd">
        <path d="M9.33333333,14.6666667 L4.66666667,11.75 L4.66666667,4.25 L9.33333333,1.33333333 L9.33333333,14.6666667 L9.33333333,14.6666667 Z M3.33333333,10 C3.33333333,10.3686667 3.03533333,10.6666667 2.66666667,10.6666667 L2,10.6666667 C1.63133333,10.6666667 1.33333333,10.3686667 1.33333333,10 L1.33333333,6 C1.33333333,5.632 1.63133333,5.33333333 2,5.33333333 L2.66666667,5.33333333 C3.03533333,5.33333333 3.33333333,5.632 3.33333333,6 L3.33333333,10 L3.33333333,10 Z M9.33333333,0 L3.33333333,4 L1.33333333,4 C0.597333333,4 0,4.59733333 0,5.33333333 L0,10.6666667 C0,11.4026667 0.597333333,12 1.33333333,12 L3.33333333,12 L9.33333333,16 C10.0693333,16 10.6666667,15.4026667 10.6666667,14.6666667 L10.6666667,1.33333333 C10.6666667,0.597333333 10.0693333,0 9.33333333,0 L9.33333333,0 Z M16.9626667,8 L19.7446667,5.218 C20.0446667,4.918 20.0726667,4.45866667 19.8073333,4.19266667 C19.5413333,3.92733333 19.082,3.95533333 18.782,4.25533333 L16,7.03733333 L13.218,4.25533333 C12.918,3.95533333 12.4586667,3.92733333 12.1926667,4.19266667 C11.9273333,4.45866667 11.9553333,4.918 12.2553333,5.218 L15.0373333,8 L12.2553333,10.782 C11.9553333,11.082 11.9273333,11.5413333 12.1926667,11.8073333 C12.4586667,12.0726667 12.918,12.0446667 13.218,11.7446667 L16,8.96266667 L18.782,11.7446667 C19.082,12.0446667 19.5413333,12.0726667 19.8073333,11.8073333 C20.0726667,11.5413333 20.0446667,11.082 19.7446667,10.782 L16.9626667,8 L16.9626667,8 Z" id="muted" fill="#000000"></path>
    </g>
</svg>