<?xml version="1.0" encoding="UTF-8"?>
<svg width="24px" height="24px" viewBox="0 0 24 24" version="1.1" xmlns="http://www.w3.org/2000/svg" xmlns:xlink="http://www.w3.org/1999/xlink">
    <!-- Generator: Sketch 52.3 (67297) - http://www.bohemiancoding.com/sketch -->
    <title>search</title>
    <desc>Created with Sketch.</desc>
    <g id="Page-1" stroke="none" stroke-width="1" fill="none" fill-rule="evenodd">
        <path d="M23.5820881,21.6347502 L16.3483556,14.3996821 C17.4609293,12.9388448 18.0870025,11.0606254 18.0870025,9.04283342 C18.0870025,4.03424833 14.0527541,0 9.04416904,0 C4.03558396,0 0,4.03558396 0,9.04416904 C0,14.0527541 4.03424833,18.0870025 9.04283342,18.0870025 C11.0606254,18.0870025 12.8683907,17.4609293 14.3996821,16.3483556 L21.6347502,23.5834237 C21.9125698,23.8612433 22.2608234,24.0008058 22.609087,24.0008058 C22.9573506,24.0008058 23.3042786,23.8612433 23.5834237,23.5834237 C24.1390762,23.0264691 24.1390762,22.1917049 23.5821182,21.6347836 L23.5820881,21.6347502 Z M9.04416904,15.9727117 C5.19448595,15.9727117 2.11562634,12.8938521 2.11562634,9.04416904 C2.11562634,5.19448595 5.19448595,2.11562634 9.04416904,2.11562634 C12.8938521,2.11562634 15.9727117,5.19448595 15.9727117,9.04416904 C15.9727117,12.892374 12.892411,15.9727117 9.04416904,15.9727117 Z" id="search" fill="#C3C3C3"></path>
    </g>
</svg>