<?xml version="1.0" encoding="UTF-8"?>
<svg width="18px" height="16px" viewBox="0 0 18 16" version="1.1" xmlns="http://www.w3.org/2000/svg" xmlns:xlink="http://www.w3.org/1999/xlink">
    <!-- Generator: Sketch 52.3 (67297) - http://www.bohemiancoding.com/sketch -->
    <title>unmuted</title>
    <desc>Created with Sketch.</desc>
    <g id="Page-1" stroke="none" stroke-width="1" fill="none" fill-rule="evenodd">
        <path d="M8.0082943,13.7199242 L4.00414715,11.2173322 L4.00414715,4.78209574 L8.0082943,2.27950377 L8.0082943,13.7199242 L8.0082943,13.7199242 Z M2.86010511,9.71577705 C2.86010511,10.0321047 2.60383969,10.2877981 2.28808409,10.2877981 L1.71606307,10.2877981 C1.40030746,10.2877981 1.14404204,10.0321047 1.14404204,9.71577705 L1.14404204,6.28365092 C1.14404204,5.96789532 1.40030746,5.7116299 1.71606307,5.7116299 L2.28808409,5.7116299 C2.60383969,5.7116299 2.86010511,5.96789532 2.86010511,6.28365092 L2.86010511,9.71577705 L2.86010511,9.71577705 Z M8.0082943,1.13546173 L2.86010511,4.56758786 L1.14404204,4.56758786 C0.512530836,4.56758786 0,5.08011869 0,5.7116299 L0,10.2877981 C0,10.9193093 0.512530836,11.4318401 1.14404204,11.4318401 L2.86010511,11.4318401 L8.0082943,14.8639663 C8.63980551,14.8639663 9.15233635,14.3514354 9.15233635,13.7199242 L9.15233635,2.27950377 C9.15233635,1.64799256 8.63980551,1.13546173 8.0082943,1.13546173 L8.0082943,1.13546173 Z M14.3005255,7.99971399 C14.3005255,5.98448393 12.8064066,4.33305924 10.8683994,4.05334096 L10.8683994,5.197383 C12.1737514,5.46222874 13.1564835,6.61599514 13.1564835,7.99971399 C13.1564835,9.38343284 12.1737514,10.5371992 10.8683994,10.802045 L10.8683994,11.946087 C12.8064066,11.6663687 14.3005255,10.014944 14.3005255,7.99971399 L14.3005255,7.99971399 Z M10.8683994,0 L10.8683994,1.17435916 C14.2273069,1.82131493 16.5886096,4.56072361 16.5886096,7.99971399 C16.5886096,11.4192557 14.3005255,14.068285 10.8683994,14.8250688 L10.8683994,16 C14.7444139,15.4325551 17.7326517,12.0856601 17.7326517,7.99971399 C17.7326517,3.91376783 14.7444139,0.566872833 10.8683994,0 L10.8683994,0 Z" id="unmuted" fill="#000000"></path>
    </g>
</svg>